<svg xmlns="http://www.w3.org/2000/svg" xmlns:xlink="http://www.w3.org/1999/xlink" width="200" zoomAndPan="magnify" viewBox="0 0 150 149.999998" height="200" preserveAspectRatio="xMidYMid meet" version="1.0"><defs><g/><clipPath id="4b48131d28"><path d="M 75 0 C 33.578125 0 0 33.578125 0 75 C 0 116.421875 33.578125 150 75 150 C 116.421875 150 150 116.421875 150 75 C 150 33.578125 116.421875 0 75 0 Z M 75 0 " clip-rule="nonzero"/></clipPath><clipPath id="4719e73bc3"><path d="M 0 0 L 150 0 L 150 150 L 0 150 Z M 0 0 " clip-rule="nonzero"/></clipPath><clipPath id="9ba5717290"><path d="M 75 0 C 33.578125 0 0 33.578125 0 75 C 0 116.421875 33.578125 150 75 150 C 116.421875 150 150 116.421875 150 75 C 150 33.578125 116.421875 0 75 0 Z M 75 0 " clip-rule="nonzero"/></clipPath><clipPath id="91ccb8c721"><rect x="0" width="150" y="0" height="150"/></clipPath></defs><rect x="-15" width="180" fill="#ffffff" y="-15" height="179.999997" fill-opacity="1"/><rect x="-15" width="180" fill="#ffffff" y="-15" height="179.999997" fill-opacity="1"/><g clip-path="url(#4b48131d28)"><g transform="matrix(1, 0, 0, 1, 0, -0.000000000000007527)"><g clip-path="url(#91ccb8c721)"><g clip-path="url(#4719e73bc3)"><g clip-path="url(#9ba5717290)"><rect x="-33" width="216" fill="#ffde59" height="215.999996" y="-32.999999" fill-opacity="1"/></g></g></g></g></g><g fill="#ffffff" fill-opacity="1"><g transform="translate(74.507809, 76.499998)"><g/></g></g><g fill="#000000" fill-opacity="1"><g transform="translate(31.871376, 76.153866)"><g><path d="M 14.3125 -5.34375 L 8.5625 -3.203125 L -8.5625 -24.234375 L -3.5 -26.125 L 9.03125 -10.375 L 9.4375 -10.53125 L 8.515625 -30.609375 L 13.4375 -32.453125 Z M 14.3125 -5.34375 "/></g></g></g><g fill="#000000" fill-opacity="1"><g transform="translate(59.31006, 108.959673)"><g><path d="M 12.890625 -4.40625 C 9.578125 -3.175781 6.828125 -3.046875 4.640625 -4.015625 C 2.453125 -4.992188 0.78125 -7.035156 -0.375 -10.140625 L -5.984375 -25.203125 L -1.328125 -26.9375 L 4.265625 -11.90625 C 4.921875 -10.144531 5.832031 -8.984375 7 -8.421875 C 8.175781 -7.859375 9.628906 -7.898438 11.359375 -8.546875 C 14.773438 -9.816406 15.828125 -12.207031 14.515625 -15.71875 L 8.921875 -30.75 L 13.578125 -32.484375 L 19.1875 -17.421875 C 20.34375 -14.316406 20.410156 -11.679688 19.390625 -9.515625 C 18.378906 -7.347656 16.210938 -5.644531 12.890625 -4.40625 Z M 12.890625 -4.40625 "/></g></g></g><g fill="#000000" fill-opacity="1"><g transform="translate(49.063558, 67.155647)"><g><path d="M 1.25 -6.859375 L 2.859375 -2.3125 L 9.03125 -4.484375 L 9.4375 -3.3125 L 1.828125 -0.640625 L -2.421875 -12.765625 L 5.046875 -15.390625 L 5.453125 -14.21875 L -0.578125 -12.09375 L 0.84375 -8.03125 L 6.171875 -9.90625 L 6.578125 -8.734375 Z M 1.25 -6.859375 "/></g></g></g><g fill="#000000" fill-opacity="1"><g transform="translate(59.298666, 63.562695)"><g><path d="M 1.828125 -0.640625 L -2.421875 -12.765625 L 1.984375 -14.3125 C 2.796875 -14.601562 3.523438 -14.710938 4.171875 -14.640625 C 4.816406 -14.566406 5.363281 -14.328125 5.8125 -13.921875 C 6.257812 -13.523438 6.597656 -12.992188 6.828125 -12.328125 C 7.085938 -11.578125 7.117188 -10.890625 6.921875 -10.265625 C 6.722656 -9.648438 6.269531 -9.078125 5.5625 -8.546875 L 5.609375 -8.390625 C 6.066406 -8.367188 6.476562 -8.234375 6.84375 -7.984375 C 7.207031 -7.742188 7.609375 -7.332031 8.046875 -6.75 L 10.390625 -3.65625 L 8.921875 -3.125 L 6.40625 -6.40625 C 6.113281 -6.800781 5.828125 -7.085938 5.546875 -7.265625 C 5.265625 -7.453125 4.960938 -7.546875 4.640625 -7.546875 C 4.328125 -7.554688 3.945312 -7.488281 3.5 -7.34375 L 1.359375 -6.578125 L 3.265625 -1.140625 Z M 3.875 -8.828125 C 4.632812 -9.097656 5.132812 -9.472656 5.375 -9.953125 C 5.625 -10.429688 5.625 -11.03125 5.375 -11.75 C 5.113281 -12.46875 4.738281 -12.9375 4.25 -13.15625 C 3.757812 -13.375 3.132812 -13.347656 2.375 -13.078125 L -0.5625 -12.046875 L 0.9375 -7.796875 Z M 3.875 -8.828125 "/></g></g></g><g fill="#000000" fill-opacity="1"><g transform="translate(70.138672, 59.757398)"><g><path d="M 5.921875 -2.078125 L 4.5 -1.578125 L 2.828125 -6.34375 L -3.9375 -12.234375 L -2.375 -12.78125 L 2.875 -8.25 L 3.09375 -8.3125 L 4.34375 -15.140625 L 5.859375 -15.671875 L 4.25 -6.84375 Z M 5.921875 -2.078125 "/></g></g></g><g fill="#000000" fill-opacity="1"><g transform="translate(80.61573, 93.849237)"><g><path d="M 5.359375 -1.6875 C 4.597656 -1.414062 3.878906 -1.273438 3.203125 -1.265625 C 2.523438 -1.265625 1.925781 -1.363281 1.40625 -1.5625 C 0.882812 -1.757812 0.453125 -2.023438 0.109375 -2.359375 L 0.546875 -3.5625 L 0.75 -3.640625 C 1.957031 -2.640625 3.34375 -2.414062 4.90625 -2.96875 C 5.8125 -3.289062 6.421875 -3.71875 6.734375 -4.25 C 7.046875 -4.789062 7.082031 -5.398438 6.84375 -6.078125 C 6.707031 -6.484375 6.515625 -6.796875 6.265625 -7.015625 C 6.023438 -7.242188 5.703125 -7.394531 5.296875 -7.46875 C 4.890625 -7.550781 4.367188 -7.566406 3.734375 -7.515625 L 2.21875 -7.359375 C 1.070312 -7.234375 0.148438 -7.359375 -0.546875 -7.734375 C -1.253906 -8.117188 -1.753906 -8.738281 -2.046875 -9.59375 C -2.265625 -10.1875 -2.296875 -10.773438 -2.140625 -11.359375 C -1.992188 -11.941406 -1.671875 -12.46875 -1.171875 -12.9375 C -0.671875 -13.414062 -0.00390625 -13.804688 0.828125 -14.109375 C 1.742188 -14.421875 2.554688 -14.554688 3.265625 -14.515625 C 3.984375 -14.484375 4.625 -14.28125 5.1875 -13.90625 L 4.796875 -12.703125 L 4.59375 -12.640625 C 4.101562 -12.941406 3.585938 -13.109375 3.046875 -13.140625 C 2.503906 -13.179688 1.910156 -13.09375 1.265625 -12.875 C 0.421875 -12.570312 -0.15625 -12.175781 -0.46875 -11.6875 C -0.78125 -11.207031 -0.835938 -10.6875 -0.640625 -10.125 C -0.441406 -9.570312 -0.132812 -9.1875 0.28125 -8.96875 C 0.707031 -8.757812 1.328125 -8.703125 2.140625 -8.796875 L 3.734375 -8.953125 C 4.992188 -9.085938 5.988281 -8.960938 6.71875 -8.578125 C 7.457031 -8.191406 7.984375 -7.554688 8.296875 -6.671875 C 8.535156 -5.984375 8.585938 -5.320312 8.453125 -4.6875 C 8.328125 -4.050781 8.003906 -3.472656 7.484375 -2.953125 C 6.972656 -2.429688 6.265625 -2.007812 5.359375 -1.6875 Z M 5.359375 -1.6875 "/></g></g></g><g fill="#000000" fill-opacity="1"><g transform="translate(91.000013, 90.203918)"><g><path d="M 1.25 -6.859375 L 2.859375 -2.3125 L 9.03125 -4.484375 L 9.4375 -3.3125 L 1.828125 -0.640625 L -2.421875 -12.765625 L 5.046875 -15.390625 L 5.453125 -14.21875 L -0.578125 -12.09375 L 0.84375 -8.03125 L 6.171875 -9.90625 L 6.578125 -8.734375 Z M 1.25 -6.859375 "/></g></g></g><g fill="#000000" fill-opacity="1"><g transform="translate(101.235122, 86.610966)"><g><path d="M 4.71875 -15.265625 L 5.125 -14.09375 L -0.578125 -12.09375 L 0.96875 -7.671875 L 6.09375 -9.46875 L 6.515625 -8.296875 L 1.390625 -6.5 L 3.265625 -1.140625 L 1.828125 -0.640625 L -2.421875 -12.765625 Z M 4.71875 -15.265625 "/></g></g></g><g fill="#000000" fill-opacity="1"><g transform="translate(110.840377, 83.239119)"><g><path d="M 6.3125 -2.015625 C 4.832031 -1.492188 3.578125 -1.476562 2.546875 -1.96875 C 1.515625 -2.457031 0.738281 -3.441406 0.21875 -4.921875 L -2.515625 -12.734375 L -1.09375 -13.234375 L 1.640625 -5.4375 C 2.003906 -4.375 2.535156 -3.664062 3.234375 -3.3125 C 3.929688 -2.96875 4.800781 -2.976562 5.84375 -3.34375 C 7.914062 -4.070312 8.582031 -5.492188 7.84375 -7.609375 L 5.109375 -15.40625 L 6.53125 -15.90625 L 9.265625 -8.09375 C 9.785156 -6.613281 9.796875 -5.359375 9.296875 -4.328125 C 8.796875 -3.304688 7.800781 -2.535156 6.3125 -2.015625 Z M 6.3125 -2.015625 "/></g></g></g><g fill="#000000" fill-opacity="1"><g transform="translate(123.329694, 78.854845)"><g><path d="M -0.984375 -13.265625 L 2.859375 -2.3125 L 8.6875 -4.359375 L 9.09375 -3.1875 L 1.828125 -0.640625 L -2.421875 -12.765625 Z M -0.984375 -13.265625 "/></g></g></g></svg>
